<?xml version="1.0" encoding="utf-8"?>
<svg viewBox="-949 951 100 125" style="enable-background:new -949 951 100 100;" xmlns="http://www.w3.org/2000/svg">
  <g transform="matrix(1, 0, 0, 1, -1.2200690886613756, 11.989612951518438)">
    <g>
      <path d="M-879.4,1004.7c0-0.1-2.3-14.8-2.9-19.2c-0.8-5.5-4.7-9.7-9.7-10.9c-2,1.2-4.4,1.9-6.9,1.9c-2.5,0-4.9-0.7-6.9-1.9     c-5.1,1.2-8.9,5.4-9.7,10.9c-0.7,4.5-2.9,19.1-2.9,19.2c-0.3,1.9,1,3.7,2.9,4c2.2,0.3,3.8-1.2,4-2.9c0-0.1,2.6-17.2,2.9-19.1     c0-0.1,0.1-0.2,0.2-0.2c0.2,0,0.3,0.1,0.3,0.3l0,23l-3.1,33.8c-0.2,2.5,1.6,4.7,4.1,4.9c2.5,0.2,4.7-1.6,4.9-4.1c0,0,3-32.9,3-33     c0-0.1,0.4-0.1,0.4,0c0,0.1,3,33,3,33c0.2,2.4,2,4.4,4.9,4.1c2.5-0.2,4.3-2.4,4.1-4.9l-3.1-33.8l0.1-23.2c0-0.1,0.1-0.2,0.2-0.2     c0.1,0,0.2,0.1,0.2,0.2c0.3,1.9,2.9,19.1,2.9,19.3c0.3,1.7,1.6,3.3,4,2.9C-880.5,1008.4-879.2,1006.6-879.4,1004.7z"/>
      <circle cx="-899" cy="963.2" r="9.7"/>
    </g>
  </g>
</svg>