<?xml version="1.0" encoding="utf-8"?>
<svg viewBox="0 0 100 125" xmlns="http://www.w3.org/2000/svg">
  <g style="" transform="matrix(0.18903300166130063, 0, 0, 0.18903300166130063, 7.554965253741557, 16.25821164053927)">
    <path d="M 164.454 174.346 C 168.596 174.346 171.954 170.988 171.954 166.846 L 171.954 158.846 C 171.954 154.704 168.596 151.346 164.454 151.346 C 160.312 151.346 156.954 154.704 156.954 158.846 L 156.954 166.846 C 156.954 170.988 160.311 174.346 164.454 174.346 Z"/>
    <path d="M 292.454 174.346 C 296.596 174.346 299.954 170.988 299.954 166.846 L 299.954 158.846 C 299.954 154.704 296.596 151.346 292.454 151.346 C 288.312 151.346 284.954 154.704 284.954 158.846 L 284.954 166.846 C 284.954 170.988 288.311 174.346 292.454 174.346 Z"/>
    <path d="M 363.917 352.28 L 363.917 284.812 C 372.253 281.674 378.275 272.882 378.275 262.546 C 378.275 249.588 368.815 239.046 357.187 239.046 L 326.576 239.046 C 336.292 228.911 342.379 214.51 342.379 198.546 L 342.379 118.546 C 342.379 87.943 320.038 63.046 292.575 63.046 L 270.589 63.046 L 270.589 42.932 C 274.348 40.386 276.871 35.794 276.871 30.546 C 276.871 22.551 271.033 16.046 263.859 16.046 C 256.685 16.046 250.847 22.551 250.847 30.546 C 250.847 35.794 253.37 40.386 257.129 42.932 L 257.129 63.046 L 198.799 63.046 L 198.799 42.932 C 202.557 40.386 205.081 35.794 205.081 30.546 C 205.081 22.551 199.243 16.046 192.069 16.046 C 184.894 16.046 179.056 22.551 179.056 30.546 C 179.056 35.794 181.58 40.386 185.338 42.932 L 185.338 63.046 L 163.352 63.046 C 135.89 63.046 113.547 87.943 113.547 118.546 L 113.547 198.546 C 113.547 214.51 119.635 228.911 129.35 239.046 L 98.741 239.046 C 87.112 239.046 77.652 249.588 77.652 262.546 C 77.652 272.882 83.673 281.674 92.011 284.812 L 92.011 352.28 C 83.673 355.418 77.652 364.21 77.652 374.546 L 77.652 390.546 C 77.652 394.688 80.665 398.046 84.383 398.046 C 88.1 398.046 91.113 394.688 91.113 390.546 L 91.113 374.546 C 91.113 369.859 94.534 366.046 98.741 366.046 C 102.946 366.046 106.368 369.859 106.368 374.546 L 106.368 390.546 C 106.368 394.688 109.382 398.046 113.099 398.046 C 116.815 398.046 119.829 394.688 119.829 390.546 L 119.829 374.546 C 119.829 364.21 113.807 355.418 105.471 352.28 L 105.471 286.046 L 135.084 286.046 L 135.084 358.546 C 135.084 371.504 144.545 382.046 156.173 382.046 L 164.617 382.046 C 165.734 387.121 167.955 391.715 170.982 395.495 C 170.982 395.512 170.979 395.529 170.979 395.546 L 170.979 431.046 L 163.352 431.046 C 143.807 431.046 127.905 448.766 127.905 470.546 C 127.905 474.688 130.919 478.046 134.635 478.046 L 213.606 478.046 C 217.322 478.046 220.336 474.688 220.336 470.546 L 220.336 438.546 C 220.336 434.404 217.322 431.046 213.606 431.046 L 213.157 431.046 L 213.157 395.546 C 213.157 395.529 213.155 395.512 213.154 395.495 C 216.182 391.715 218.403 387.12 219.519 382.046 L 236.407 382.046 C 237.524 387.121 239.745 391.715 242.772 395.495 C 242.772 395.512 242.77 395.529 242.77 395.546 L 242.77 431.046 L 242.321 431.046 C 238.605 431.046 235.591 434.404 235.591 438.546 L 235.591 470.546 C 235.591 474.688 238.605 478.046 242.321 478.046 L 321.291 478.046 C 325.008 478.046 328.022 474.688 328.022 470.546 C 328.022 448.766 312.12 431.046 292.575 431.046 L 284.947 431.046 L 284.947 395.546 C 284.947 395.529 284.945 395.512 284.944 395.495 C 287.972 391.715 290.194 387.12 291.31 382.046 L 299.755 382.046 C 311.382 382.046 320.843 371.504 320.843 358.546 L 320.843 286.046 L 350.457 286.046 L 350.457 352.28 C 342.12 355.418 336.098 364.21 336.098 374.546 L 336.098 390.546 C 336.098 394.688 339.112 398.046 342.828 398.046 C 346.546 398.046 349.558 394.688 349.558 390.546 L 349.558 374.546 C 349.558 369.859 352.981 366.046 357.187 366.046 C 361.392 366.046 364.815 369.859 364.815 374.546 L 364.815 390.546 C 364.815 394.688 367.828 398.046 371.545 398.046 C 375.261 398.046 378.275 394.688 378.275 390.546 L 378.275 374.546 C 378.275 364.21 372.253 355.418 363.917 352.28 Z M 357.187 271.046 C 352.981 271.046 349.558 267.233 349.558 262.546 C 349.558 257.859 352.981 254.046 357.187 254.046 C 361.392 254.046 364.815 257.859 364.815 262.546 C 364.815 267.233 361.392 271.046 357.187 271.046 Z M 127.008 118.546 C 127.008 96.214 143.312 78.046 163.352 78.046 L 292.575 78.046 C 312.616 78.046 328.919 96.214 328.919 118.546 L 328.919 166.546 C 328.919 174.785 314.408 183.099 301.98 187.715 C 282.309 195.022 256.023 199.046 227.963 199.046 C 199.904 199.046 173.618 195.022 153.947 187.715 C 141.52 183.099 127.008 174.785 127.008 166.546 L 127.008 118.546 Z M 127.008 198.546 L 127.008 190.028 C 132.367 194.171 139.705 198.236 149.69 201.946 C 170.697 209.749 198.495 214.046 227.963 214.046 C 257.432 214.046 285.23 209.749 306.238 201.945 C 316.224 198.236 323.561 194.17 328.919 190.027 L 328.919 198.545 C 328.919 220.877 312.616 239.045 292.575 239.045 L 163.352 239.045 C 143.312 239.046 127.008 220.878 127.008 198.546 Z M 98.741 254.046 C 102.946 254.046 106.368 257.859 106.368 262.546 C 106.368 267.233 102.946 271.046 98.741 271.046 C 94.534 271.046 91.113 267.233 91.113 262.546 C 91.113 257.859 94.534 254.046 98.741 254.046 Z M 118.396 271.046 C 119.318 268.408 119.829 265.543 119.829 262.546 C 119.829 259.549 119.318 256.684 118.396 254.046 L 135.084 254.046 L 135.084 271.046 L 118.396 271.046 Z M 206.875 463.046 L 142.42 463.046 C 145.269 453.193 153.576 446.046 163.352 446.046 L 206.875 446.046 L 206.875 463.046 Z M 184.44 431.046 L 184.44 404.871 C 186.869 405.631 189.425 406.046 192.069 406.046 C 194.711 406.046 197.268 405.631 199.696 404.871 L 199.696 431.046 L 184.44 431.046 Z M 192.069 391.046 C 186.328 391.046 181.352 387.38 178.895 382.046 L 205.24 382.046 C 202.784 387.38 197.808 391.046 192.069 391.046 Z M 313.508 463.046 L 249.052 463.046 L 249.052 446.046 L 292.575 446.046 C 302.351 446.046 310.658 453.193 313.508 463.046 Z M 256.231 431.046 L 256.231 404.871 C 258.66 405.631 261.216 406.046 263.859 406.046 C 266.502 406.046 269.058 405.631 271.487 404.871 L 271.487 431.046 L 256.231 431.046 Z M 263.859 391.046 C 258.12 391.046 253.142 387.38 250.686 382.046 L 277.031 382.046 C 274.574 387.38 269.598 391.046 263.859 391.046 Z M 307.382 358.546 C 307.382 363.233 303.96 367.046 299.755 367.046 L 156.173 367.046 C 151.967 367.046 148.546 363.233 148.546 358.546 L 148.546 251.542 C 153.225 253.169 158.199 254.046 163.352 254.046 L 292.575 254.046 C 297.729 254.046 302.703 253.169 307.382 251.542 L 307.382 358.546 Z M 320.843 254.046 L 337.531 254.046 C 336.609 256.684 336.098 259.549 336.098 262.546 C 336.098 265.543 336.609 268.408 337.531 271.046 L 320.843 271.046 L 320.843 254.046 Z" style=""/>
    <path d="M 259.233 289.145 C 241.864 289.145 227.733 303.276 227.733 320.645 C 227.733 338.014 241.863 352.145 259.233 352.145 C 276.603 352.145 290.733 338.014 290.733 320.645 C 290.733 303.276 276.602 289.145 259.233 289.145 Z M 259.233 337.145 C 250.135 337.145 242.733 329.743 242.733 320.645 C 242.733 311.547 250.134 304.145 259.233 304.145 C 268.332 304.145 275.733 311.547 275.733 320.645 C 275.733 329.743 268.331 337.145 259.233 337.145 Z"/>
    <path d="M 172.454 303.346 C 168.312 303.346 164.954 306.704 164.954 310.846 L 164.954 342.846 C 164.954 346.988 168.312 350.346 172.454 350.346 C 176.596 350.346 179.954 346.988 179.954 342.846 L 179.954 310.846 C 179.954 306.704 176.596 303.346 172.454 303.346 Z"/>
    <path d="M 196.169 303.346 C 192.027 303.346 188.669 306.704 188.669 310.846 L 188.669 342.846 C 188.669 346.988 192.027 350.346 196.169 350.346 C 200.311 350.346 203.669 346.988 203.669 342.846 L 203.669 310.846 C 203.669 306.704 200.311 303.346 196.169 303.346 Z"/>
  </g>
</svg>